<?xml version="1.0" encoding="utf-8"?>
<!-- Generator: Adobe Illustrator 28.1.0, SVG Export Plug-In . SVG Version: 6.00 Build 0)  -->
<svg version="1.1" id="Layer_1" xmlns:xodm="http://www.corel.com/coreldraw/odm/2003"
	 xmlns="http://www.w3.org/2000/svg" xmlns:xlink="http://www.w3.org/1999/xlink" x="0px" y="0px" viewBox="0 0 1415 550"
	 style="enable-background:new 0 0 1415 550;" xml:space="preserve">
<style type="text/css">
	.st0{fill:url(#SVGID_1_);}
	.st1{fill:url(#SVGID_00000059988174187737915520000005836167860885989508_);}
	.st2{fill:url(#SVGID_00000128470643431734536380000005197194519418165923_);}
	.st3{fill:url(#SVGID_00000132087464381891963300000015463068771678872456_);}
</style>
<g id="Layer_x0020_1">
	<g id="_13WW">
		
			<linearGradient id="SVGID_1_" gradientUnits="userSpaceOnUse" x1="-2518.05" y1="-5685.3105" x2="-2518.05" y2="-2137.8101" gradientTransform="matrix(0.1 0 0 -0.1 369 -76.321)">
			<stop  offset="0" style="stop-color:#0971B6"/>
			<stop  offset="1" style="stop-color:#2096D2"/>
		</linearGradient>
		<path class="st0" d="M234.4,470.6v77.5H196c-26.7,0-52-5.1-75.8-15.2c-23.8-10.2-44.7-24.2-62.7-42.3s-32.1-38.9-42.3-62.7
			C5.1,404.1,0,378.8,0,352.1V0.1h77.6v235.3h156.8v77.6H77.5v39.2c0,16.3,3.1,31.7,9.2,46.2s14.5,27.1,25.3,37.9
			s23.4,19.2,37.9,25.3c14.5,6.1,29.9,9.2,46.2,9.2H234.4L234.4,470.6z"/>
		
			<linearGradient id="SVGID_00000030486032942078524900000001886355097805546933_" gradientUnits="userSpaceOnUse" x1="4672.9995" y1="-5685.3105" x2="4672.9995" y2="-2137.8101" gradientTransform="matrix(0.1 0 0 -0.1 369 -76.321)">
			<stop  offset="0" style="stop-color:#0971B6"/>
			<stop  offset="1" style="stop-color:#2096D2"/>
		</linearGradient>
		<path style="fill:url(#SVGID_00000030486032942078524900000001886355097805546933_);" d="M1039.8,155.2L835.9,547.3l-203-392.1
			H720c8.1,15.7,17.4,33.6,27.9,53.6c10.5,20,20.9,40.4,31.4,61c10.5,20.6,20.8,40.5,30.9,59.7c10.2,19.2,18.7,35.7,25.7,49.7
			c8.7-16.9,18.7-36.2,30.1-58c11.3-21.8,22.5-43.4,33.6-64.9c11-21.5,21.2-41.4,30.5-59.7c9.3-18.3,16.6-32.1,21.8-41.4
			L1039.8,155.2L1039.8,155.2z"/>
		
			<linearGradient id="SVGID_00000116917675626119491550000011814445266036763018_" gradientUnits="userSpaceOnUse" x1="8503.8018" y1="-5685.3105" x2="8503.8018" y2="-2137.8101" gradientTransform="matrix(0.1 0 0 -0.1 369 -76.321)">
			<stop  offset="0" style="stop-color:#0971B6"/>
			<stop  offset="1" style="stop-color:#2096D2"/>
		</linearGradient>
		<path style="fill:url(#SVGID_00000116917675626119491550000011814445266036763018_);" d="M1219.8,156.9c27.3,0,52.7,5.1,76.2,15.2
			c23.5,10.2,44.2,24.1,61.9,41.8c17.7,17.7,31.7,38.3,41.8,61.9c10.2,23.5,15.2,48.9,15.2,76.2v196h-195.2
			c-26.7,0-52-5.1-75.8-15.2c-23.8-10.2-44.7-24.2-62.7-42.3s-32.1-38.9-42.3-62.7c-10.2-23.8-15.2-49.1-15.2-75.8
			c0-27.3,5.1-52.7,15.2-76.2c10.2-23.5,24.2-44.1,42.3-61.9c18-17.7,38.9-31.7,62.7-41.8C1167.8,162,1193.1,156.9,1219.8,156.9
			L1219.8,156.9z M1337.5,470.6V352.1c0-16.3-3.1-31.5-9.2-45.8c-6.1-14.2-14.5-26.7-25.3-37.5c-10.8-10.7-23.2-19.2-37.5-25.3
			s-29.5-9.1-45.7-9.1c-16.3,0-31.7,3-46.2,9.1c-14.5,6.1-27.2,14.5-37.9,25.3c-10.8,10.8-19.2,23.2-25.3,37.5
			c-6.1,14.2-9.2,29.5-9.2,45.8c0,16.3,3.1,31.7,9.2,46.2s14.5,27.1,25.3,37.9s23.4,19.2,37.9,25.3c14.5,6.1,29.9,9.2,46.2,9.2
			H1337.5L1337.5,470.6z"/>
		
			<linearGradient id="SVGID_00000016766456759773973900000016299332349464395709_" gradientUnits="userSpaceOnUse" x1="889.0999" y1="-5685.3105" x2="889.0999" y2="-2137.8101" gradientTransform="matrix(0.1 0 0 -0.1 369 -76.321)">
			<stop  offset="0" style="stop-color:#0971B6"/>
			<stop  offset="1" style="stop-color:#2096D2"/>
		</linearGradient>
		<path style="fill:url(#SVGID_00000016766456759773973900000016299332349464395709_);" d="M319.8,492c-19.3-19.3-33.8-41-43.3-64.8
			c-9.4-23.8-14.2-48.4-14.2-73.3c0-25.1,4.6-49.5,14.1-73.3c9.3-23.8,23.7-45.3,43-64.6L457.8,77.5L596,215.8
			c18.9,18.9,33.2,40.4,42.8,64.5c9.7,24,14.7,48.8,14.7,74.2c0,25.6-4.8,50.2-14.4,74.2c-9.6,24.1-23.8,45.5-42.7,64.3
			c-19.3,19.3-40.8,33.7-64.6,43c-23.8,9.4-48.4,14.1-73.6,13.8c-25.3-0.3-50-5.2-73.9-15C360.2,525.2,338.7,510.9,319.8,492
			L319.8,492z M457.8,187.3l-83.5,83.5c-11.5,11.5-20,24.4-25.9,38.8c-5.7,14.4-8.4,29-8.4,44.3c0,15.1,2.9,29.9,8.7,44.3
			c5.8,14.4,14.5,27.5,26,38.9c11.5,11.5,24.5,20.3,39.2,26.3c14.5,5.9,29.5,9,44.6,9c15.2,0,29.9-2.8,44.3-8.4
			c14.4-5.8,27.3-14.4,38.8-25.8c11.5-11.5,20.2-24.4,26-39.1c6-14.5,8.9-29.3,8.9-44.6c0-15.1-3-30.1-9-44.6
			c-6-14.7-14.8-27.7-26.3-39.2L457.8,187.3L457.8,187.3z"/>
	</g>
</g>
</svg>
